<svg width="763" height="140" viewBox="0 0 763 140" fill="none" xmlns="http://www.w3.org/2000/svg">
<path d="M125.228 42.95L78.1283 19.45C76.9283 18.85 75.6283 18.85 74.4283 19.45L27.3283 42.95C25.9283 43.65 25.0283 45.15 25.0283 46.65C25.0283 48.25 25.9283 49.65 27.3283 50.35L74.4283 73.95C75.0283 74.25 75.6283 74.35 76.3283 74.35C76.9283 74.35 77.6283 74.25 78.2283 73.95L125.328 50.45C126.728 49.75 127.628 48.35 127.628 46.75C127.528 45.15 126.628 43.65 125.228 42.95ZM76.2283 60L38.4283 46.65L76.2283 27.75L114.028 46.65L76.2283 60Z" fill="#DA8CFF"/>
<path d="M127.028 91.9531C126.028 89.9531 123.528 89.0531 121.428 90.0531L74.4281 106L31.0281 90.0531C29.0281 89.0531 26.5281 89.8531 25.4281 91.9531C24.4281 93.9531 25.2281 96.4531 27.3281 97.5531L74.4281 121.053C75.0281 121.353 75.6281 121.453 76.3281 121.453C76.9281 121.453 77.6281 121.353 78.2281 121.053L125.328 97.5531C127.228 96.4531 128.028 93.9531 127.028 91.9531Z" fill="#DA8CFF"/>
<path d="M127.028 68.3497C126.028 66.3497 123.528 65.4497 121.428 66.4497L74.4281 84L31.0281 66.5497C29.0281 65.5497 26.5281 66.3497 25.4281 68.4497C24.4281 70.4497 25.2281 72.9497 27.3281 74.0497L74.4281 97.5497C75.0281 97.8497 75.6281 97.9497 76.3281 97.9497C76.9281 97.9497 77.6281 97.8497 78.2281 97.5497L125.228 73.9497C127.228 72.9497 128.028 70.4497 127.028 68.3497Z" fill="url(#paint0_linear_761_2)"/>
<path d="M517.066 10.1423C502.533 18.009 515.733 40.409 530.4 32.809C535.333 30.2757 538.666 25.8757 538.666 21.7423C538.666 11.0757 526.933 4.67567 517.066 10.1423Z" fill="#B068FF"/>
<path d="M739.2 12.5401C736.667 15.0734 734.667 18.2734 734.667 19.7401C734.667 28.2734 742.534 35.3401 750.534 34.1401C763.6 32.1401 767.2 15.8734 756 10.0067C749.467 6.6734 744.267 7.4734 739.2 12.5401Z" fill="#9C57FF"/>
<path d="M198.267 16.9464C197.467 18.2797 164 120.946 164 121.88C164 122.28 170.933 122.68 179.333 122.68H194.533L197.467 112.68L200.4 102.546L218.4 102.946L236.4 103.346L239.2 113.08L242 122.68H257.467H273.067L267.467 105.08C264.4 95.3464 256.4 71.3463 249.867 51.613L238 16.013H218.4C207.6 16.013 198.533 16.413 198.267 16.9464ZM224.133 63.0797L228.933 79.3464L218.933 79.7464C213.467 80.013 208.8 79.8797 208.4 79.4797C208.133 79.213 210.133 71.3464 212.8 62.1464C215.6 52.9464 218.133 45.7463 218.533 46.1463C218.933 46.5463 221.467 54.1464 224.133 63.0797Z" fill="url(#paint1_linear_761_2)"/>
<path d="M329.333 36.2759V56.6759L326.666 52.2759C317.6 37.4759 293.466 38.5426 282.8 54.1426C277.733 61.6092 275.733 69.2092 275.733 82.1426C275.6 96.9426 278.4 106.276 285.066 113.609C290.8 120.009 294.8 122.143 303.066 123.343C311.466 124.676 320 121.476 325.333 114.943L329.333 110.009V116.409V122.676H344H358.666V69.3426V16.0093H344H329.333V36.2759ZM324.4 66.6759C326.666 68.4092 328.266 71.6092 329.2 76.0092C333.2 94.2759 321.2 108.009 309.733 98.1426C306.133 95.0759 306 94.4092 306 82.9426C306 72.0092 306.266 70.5426 309.2 67.4759C313.2 63.2092 319.6 62.9426 324.4 66.6759Z" fill="url(#paint2_linear_761_2)"/>
<path d="M415.733 42.5464C410 44.413 404.533 48.9464 402.267 53.613L400 58.013V50.2797V42.6797H386H372V82.6797V122.68H386.667H401.333V96.9464C401.333 67.213 401.867 65.3464 410.667 65.3464C419.467 65.3464 420 67.213 420 96.9464V122.68H434H448V96.9464C448 67.3464 448.533 65.3464 457.2 65.3464C460.667 65.3464 463.067 66.2797 464.8 68.1464C467.067 70.6797 467.333 73.613 467.733 96.813L468.267 122.68H482.133H496V92.2797C496 58.5464 495.2 54.6797 486.8 47.613C475.333 38.013 455.333 40.813 448.267 53.0797L445.6 57.7464L443.333 52.9464C442.133 50.2797 439.067 46.813 436.667 45.3464C431.6 42.2797 421.067 40.813 415.733 42.5464Z" fill="url(#paint3_linear_761_2)"/>
<path d="M598.4 42.6797C592.133 44.5464 587.066 48.2797 584.133 53.213L581.333 58.013V50.2797V42.6797H567.333H553.333V82.6797V122.68H568H582.666V97.4797C582.666 74.1464 582.8 72.1464 585.466 68.813C589.2 64.013 597.333 63.8797 602 68.6797C605.333 71.8797 605.333 72.1464 605.333 97.3464V122.68H620.133H634.933L634.4 92.9464C634 66.1464 633.733 62.813 631.2 57.213C625.6 45.3464 611.066 38.813 598.4 42.6797Z" fill="url(#paint4_linear_761_2)"/>
<path d="M671.333 42.6771C663.333 44.4104 659.6 46.0104 654.8 50.1437C642.266 60.6771 644.533 80.0104 659.066 87.6104C661.2 88.6771 668.8 90.6771 676 92.0104C683.333 93.3437 690.533 95.2104 692 96.0104C695.733 98.0104 694.933 101.61 690.133 103.877C685.333 106.144 676.8 104.01 674.666 100.01C673.333 97.6104 671.733 97.3437 659.333 97.3437C643.6 97.3437 643.333 97.6104 647.866 106.41C651.2 112.944 655.333 116.544 663.333 120.277C668.933 122.81 672.266 123.344 684.8 123.344C698.533 123.344 700 123.077 707.333 119.344C718.133 113.877 723.2 106.544 723.2 96.6771C723.2 83.3437 715.866 77.8771 692.666 73.4771C677.066 70.5437 673.6 68.5437 676.133 63.8771C678.266 59.8771 688.533 60.4104 692.8 64.6771C695.866 67.7437 697.066 68.0104 708.666 68.0104C723.066 68.0104 723.333 67.7437 718.666 58.0104C713.866 48.0104 703.6 42.9437 686.666 42.0104C681.2 41.7437 674.266 42.0104 671.333 42.6771Z" fill="url(#paint5_linear_761_2)"/>
<path d="M510.667 82.6797V122.68H524.667H538.667V82.6797V42.6797H524.667H510.667V82.6797Z" fill="#B068FF"/>
<path d="M734.667 82.6797V122.68H748.667H762.667V82.6797V42.6797H748.667H734.667V82.6797Z" fill="#9C57FF"/>
<defs>
<linearGradient id="paint0_linear_761_2" x1="10.3811" y1="82.0134" x2="681.585" y2="82.0134" gradientUnits="userSpaceOnUse">
<stop offset="0.0015024" stop-color="#DA8CFF"/>
<stop offset="1" stop-color="#9A55FF"/>
</linearGradient>
<linearGradient id="paint1_linear_761_2" x1="272.667" y1="69.0078" x2="163.667" y2="69.0078" gradientUnits="userSpaceOnUse">
<stop stop-color="#C87CFF"/>
<stop offset="0.0001" stop-color="#C177FF"/>
<stop offset="1" stop-color="#DA8CFF"/>
</linearGradient>
<linearGradient id="paint2_linear_761_2" x1="365.667" y1="70.0078" x2="262.667" y2="70.0078" gradientUnits="userSpaceOnUse">
<stop stop-color="#B970FF"/>
<stop offset="1" stop-color="#C075FF"/>
</linearGradient>
<linearGradient id="paint3_linear_761_2" x1="495.667" y1="82.0078" x2="371.667" y2="82.0078" gradientUnits="userSpaceOnUse">
<stop stop-color="#B26AFF"/>
<stop offset="1" stop-color="#B66DFF"/>
</linearGradient>
<linearGradient id="paint4_linear_761_2" x1="634.667" y1="82.0078" x2="553.667" y2="82.0078" gradientUnits="userSpaceOnUse">
<stop stop-color="#A55FFF"/>
<stop offset="1" stop-color="#A760FF"/>
</linearGradient>
<linearGradient id="paint5_linear_761_2" x1="723.667" y1="83.0078" x2="645.667" y2="83.0078" gradientUnits="userSpaceOnUse">
<stop stop-color="#A55FFF"/>
<stop offset="1" stop-color="#A760FF"/>
</linearGradient>
</defs>
</svg>
