<svg width="145" height="140" viewBox="0 0 145 140" fill="none" xmlns="http://www.w3.org/2000/svg">
<path d="M122.228 42.95L75.1283 19.45C73.9283 18.85 72.6283 18.85 71.4283 19.45L24.3283 42.95C22.9283 43.65 22.0283 45.15 22.0283 46.65C22.0283 48.25 22.9283 49.65 24.3283 50.35L71.4283 73.95C72.0283 74.25 72.6283 74.35 73.3283 74.35C73.9283 74.35 74.6283 74.25 75.2283 73.95L122.328 50.45C123.728 49.75 124.628 48.35 124.628 46.75C124.528 45.15 123.628 43.65 122.228 42.95ZM73.2283 65.65L35.4283 46.65L73.2283 27.75L111.028 46.65L73.2283 65.65Z" fill="url(#paint0_linear_761_2)"/>
<path d="M124.028 91.9531C123.028 89.9531 120.528 89.0531 118.428 90.0531L73.2281 112.753L28.0281 90.0531C26.0281 89.0531 23.5281 89.8531 22.4281 91.9531C21.4281 93.9531 22.2281 96.4531 24.3281 97.5531L71.4281 121.053C72.0281 121.353 72.6281 121.453 73.3281 121.453C73.9281 121.453 74.6281 121.353 75.2281 121.053L122.328 97.5531C124.228 96.4531 125.028 93.9531 124.028 91.9531Z" fill="url(#paint1_linear_761_2)"/>
<path d="M124.028 68.3497C123.028 66.3497 120.528 65.4497 118.428 66.4497L73.2281 89.1497L28.0281 66.5497C26.0281 65.5497 23.5281 66.3497 22.4281 68.4497C21.4281 70.4497 22.2281 72.9497 24.3281 74.0497L71.4281 97.5497C72.0281 97.8497 72.6281 97.9497 73.3281 97.9497C73.9281 97.9497 74.6281 97.8497 75.2281 97.5497L122.228 73.9497C124.228 72.9497 125.028 70.4497 124.028 68.3497Z" fill="url(#paint2_linear_761_2)"/>
<defs>
<linearGradient id="paint0_linear_761_2" x1="7.38132" y1="46.6983" x2="678.585" y2="46.6983" gradientUnits="userSpaceOnUse">
<stop offset="0.0015024" stop-color="#DA8CFF"/>
<stop offset="1" stop-color="#9A55FF"/>
</linearGradient>
<linearGradient id="paint1_linear_761_2" x1="7.38106" y1="105.561" x2="678.585" y2="105.561" gradientUnits="userSpaceOnUse">
<stop offset="0.0015024" stop-color="#DA8CFF"/>
<stop offset="1" stop-color="#9A55FF"/>
</linearGradient>
<linearGradient id="paint2_linear_761_2" x1="7.38106" y1="82.0134" x2="678.585" y2="82.0134" gradientUnits="userSpaceOnUse">
<stop offset="0.0015024" stop-color="#DA8CFF"/>
<stop offset="1" stop-color="#9A55FF"/>
</linearGradient>
</defs>
</svg>
