<svg width="290" height="211" viewBox="0 0 290 211" fill="none" xmlns="http://www.w3.org/2000/svg">
<path d="M270 40H20C9 40 0 31 0 20C0 9 9 0 20 0H270C281 0 290 9 290 20C290 31 281 40 270 40Z" fill="white"/>
<path d="M270 210.2H20C9 210.2 0 201.2 0 190.2C0 179.2 9 170.2 20 170.2H270C281 170.2 290 179.2 290 190.2C290 201.2 281 210.2 270 210.2Z" fill="white"/>
<path d="M270 125.1H20C9 125.1 0 116.1 0 105.1C0 94.0996 9 85.0996 20 85.0996H270C281 85.0996 290 94.0996 290 105.1C290 116.1 281 125.1 270 125.1Z" fill="white"/>
</svg>
