<svg width="47" height="47" viewBox="0 0 47 47" fill="none" xmlns="http://www.w3.org/2000/svg">
<path fill-rule="evenodd" clip-rule="evenodd" d="M23.5 0C10.5296 0 0 10.5296 0 23.5C0 36.4704 10.5296 47 23.5 47C36.4704 47 47 36.4704 47 23.5C47 10.5296 36.4704 0 23.5 0ZM23.5 2.00855C35.3617 2.00855 44.9915 11.6383 44.9915 23.5C44.9915 35.3617 35.3617 44.9915 23.5 44.9915C11.6383 44.9915 2.00855 35.3617 2.00855 23.5C2.00855 11.6383 11.6383 2.00855 23.5 2.00855Z" fill="white"/>
<path d="M36.3797 11.4178C36.134 11.2129 35.8349 11.0767 35.5147 11.0242C35.1946 10.9717 34.8657 11.0049 34.5637 11.12L7.13142 21.5247C6.77281 21.6607 6.46946 21.9052 6.26677 22.2215C6.06408 22.5379 5.97293 22.9091 6.00698 23.2796C6.04103 23.6501 6.19843 24 6.45564 24.2769C6.71286 24.5539 7.05604 24.743 7.43385 24.8159L14.8798 26.2537V35.127C14.876 35.4684 14.9792 35.8029 15.1756 36.0867C15.3721 36.3706 15.6527 36.5905 15.9808 36.7178C16.2006 36.8067 16.4365 36.8528 16.6748 36.8534C16.9076 36.8527 17.138 36.8073 17.3526 36.72C17.5671 36.6326 17.7616 36.505 17.9247 36.3445L22.1752 32.2409L28.4467 37.5692C28.7699 37.8463 29.187 37.9996 29.6192 38C29.8071 37.9998 29.9938 37.9712 30.1725 37.9152C30.4673 37.825 30.7324 37.6617 30.9414 37.4416C31.1504 37.2216 31.296 36.9524 31.3636 36.6611L36.9545 13.1075C37.0274 12.802 37.0125 12.4831 36.9112 12.1853C36.8099 11.8874 36.6261 11.622 36.3797 11.4178ZM7.19144 23.1781C7.17665 23.0541 7.20561 22.9289 7.27363 22.8228C7.34165 22.7166 7.44477 22.6357 7.5663 22.5931L32.7122 13.0556L15.3364 25.1712L7.66704 23.6903C7.53964 23.669 7.42339 23.6069 7.33709 23.5139C7.25079 23.421 7.19947 23.3027 7.19144 23.1781ZM17.0838 35.5328C17.0007 35.6131 16.8947 35.6678 16.7794 35.6899C16.6641 35.7121 16.5445 35.7007 16.4359 35.6573C16.3273 35.6138 16.2344 35.5403 16.1691 35.4459C16.1037 35.3515 16.0689 35.2405 16.0689 35.127V27.0529L21.2807 31.481L17.0838 35.5328ZM35.7954 12.851L30.2045 36.4046C30.1815 36.5016 30.1328 36.591 30.0632 36.6643C29.9936 36.7376 29.9055 36.7922 29.8075 36.8227C29.7094 36.8532 29.6049 36.8586 29.5041 36.8384C29.4032 36.8182 29.3096 36.773 29.2322 36.7073L16.4264 25.8274L35.6993 12.3891C35.75 12.4543 35.785 12.5296 35.8016 12.6095C35.8182 12.6895 35.8161 12.772 35.7954 12.851Z" fill="white"/>
</svg>
