<svg width="47" height="47" viewBox="0 0 47 47" fill="none" xmlns="http://www.w3.org/2000/svg">
<path fill-rule="evenodd" clip-rule="evenodd" d="M24.3779 20.8157C21.3111 23.638 18.3176 26.3093 18.3176 26.3093C17.9035 26.6783 17.8682 27.313 18.2372 27.7271C18.6062 28.1402 19.241 28.1764 19.655 27.8074C19.655 27.8074 27.4968 20.8078 30.8452 17.4593C31.3564 16.9491 31.51 16.558 31.5373 16.3956C31.6071 15.9824 31.4623 15.6911 31.2539 15.4792C31.1012 15.323 30.8743 15.1747 30.5265 15.1597C30.3561 15.1526 29.9774 15.2188 29.4672 15.4589C26.5487 16.8317 14.9435 24.5631 14.9435 24.5631C14.4818 24.8704 14.3574 25.4945 14.6646 25.9553C14.9727 26.417 15.5968 26.5415 16.0576 26.2343C16.0576 26.2343 20.3771 23.3528 24.3779 20.8157Z" fill="white"/>
<path fill-rule="evenodd" clip-rule="evenodd" d="M23.5 0C10.5296 0 0 10.5296 0 23.5C0 36.4704 10.5296 47 23.5 47C36.4704 47 47 36.4704 47 23.5C47 10.5296 36.4704 0 23.5 0ZM23.5 2.00855C35.3617 2.00855 44.9915 11.6383 44.9915 23.5C44.9915 35.3617 35.3617 44.9915 23.5 44.9915C11.6383 44.9915 2.00855 35.3617 2.00855 23.5C2.00855 11.6383 11.6383 2.00855 23.5 2.00855Z" fill="white"/>
<path fill-rule="evenodd" clip-rule="evenodd" d="M14.6948 26.1923L16.8435 33.1822C16.8515 33.2078 16.8603 33.2334 16.87 33.2581C17.0987 33.8319 17.3282 34.1656 17.4924 34.3236C17.789 34.6097 18.0936 34.6759 18.346 34.6688C18.7009 34.6582 19.273 34.4464 19.4998 33.6051C19.5157 33.5433 19.5272 33.4806 19.5316 33.417L19.8565 28.943L28.3445 35.1861C29.2167 35.8482 30.0006 35.9886 30.5947 35.8076C31.2074 35.6205 31.8006 35.059 32.0813 33.8637C32.0831 33.8566 32.0849 33.8496 32.0858 33.8425L36.2755 14.1007C36.5253 13.0493 36.3849 12.2636 36.0433 11.8046C35.6469 11.2705 34.8974 10.9077 33.6227 11.252C33.5883 11.2608 33.5538 11.2723 33.5212 11.2855L8.91257 20.8293C8.87461 20.8443 8.83752 20.862 8.80133 20.8805C7.63516 21.5064 7.37563 22.2224 7.3721 22.6858C7.36769 23.31 7.80555 23.9138 8.54885 24.2122C8.57092 24.221 8.593 24.2298 8.61595 24.2369L14.6948 26.1923ZM34.3872 13.1455C34.3775 13.2886 34.3581 13.4828 34.3192 13.6461C34.3166 13.6549 34.3148 13.6637 34.313 13.6726L30.1242 33.4117C30.0889 33.5574 30.0192 33.7242 29.9724 33.8284C29.8611 33.7737 29.6837 33.681 29.5557 33.583C29.5504 33.5795 29.546 33.5759 29.5407 33.5724L19.5811 26.2479C19.2871 26.0316 18.8978 25.9919 18.5659 26.1446C18.2339 26.2982 18.0115 26.6195 17.985 26.9841L17.804 29.471L16.4604 25.102C16.3642 24.7886 16.1205 24.5415 15.808 24.4408L9.98691 22.5676L34.1903 13.18C34.2557 13.165 34.3245 13.1535 34.3872 13.1455Z" fill="white"/>
<path fill-rule="evenodd" clip-rule="evenodd" d="M19.0046 34.4209L23.3709 30.6505C23.7902 30.2886 23.837 29.6538 23.4751 29.2345C23.1123 28.8152 22.4775 28.7684 22.0582 29.1303L17.6928 32.9007C17.2726 33.2627 17.2267 33.8974 17.5886 34.3167C17.9506 34.7369 18.5853 34.7828 19.0046 34.4209Z" fill="white"/>
</svg>
