<svg width="47" height="47" viewBox="0 0 47 47" fill="none" xmlns="http://www.w3.org/2000/svg">
<path d="M23.5 0C10.5334 0 0 10.5334 0 23.5C0 36.4666 10.5334 47 23.5 47C36.4666 47 47 36.4666 47 23.5C47 10.5334 36.4666 0 23.5 0ZM23.5 2.04348C35.3622 2.04348 44.9565 11.6378 44.9565 23.5C44.9565 35.3622 35.3622 44.9565 23.5 44.9565C11.6378 44.9565 2.04348 35.3622 2.04348 23.5C2.04348 11.6378 11.6378 2.04348 23.5 2.04348ZM13.2846 16.3478L9.16173 16.3498C9.16173 16.3498 8.92581 16.3365 8.64088 16.3738C8.35595 16.411 7.93503 16.4283 7.5034 16.9166L7.5014 16.9186L7.49941 16.9206C7.11547 17.3596 7.13012 17.8706 7.17812 18.1518C7.22593 18.432 7.33377 18.6427 7.33377 18.6427V18.6447C7.37341 18.742 10.367 26.0768 14.1407 30.0176C16.8026 32.7991 19.6495 33.7174 22.1849 33.7174H23.5C23.9327 33.7174 24.3191 33.6977 24.7472 33.4759C25.1754 33.2541 25.5435 32.6421 25.5435 32.1668C25.5435 31.6548 25.5561 31.1583 25.6213 30.8817C25.6822 30.6233 25.6587 30.6867 25.6832 30.6861C25.7077 30.6914 25.7522 30.7017 25.8368 30.74C26.0191 30.8224 26.3007 31.0063 26.6131 31.2489C27.2369 31.7331 27.9757 32.4357 28.8043 32.979C29.991 33.7655 31.2788 33.7174 31.2788 33.7174H35.5254L35.5713 33.7134C35.5713 33.7134 36.2229 33.6986 36.8924 33.2883C37.2271 33.0832 37.6249 32.7069 37.7584 32.1429C37.892 31.5788 37.7215 30.987 37.3933 30.4666C37.2734 30.2757 36.6913 29.4321 34.368 27.3694C33.7677 26.8371 33.3584 26.4603 33.1965 26.2599C33.1391 26.1888 33.1343 26.1956 33.1227 26.192C33.1362 26.1571 33.2705 25.8744 33.6296 25.4078C34.0039 24.9214 34.5726 24.2438 35.3039 23.3124C36.236 22.125 36.8899 20.9832 37.3015 20.0197C37.5072 19.538 37.6531 19.1009 37.7405 18.7046C37.8279 18.3084 37.8976 17.979 37.7684 17.5093C37.6721 17.1596 37.4103 16.8464 37.1538 16.6811C36.8972 16.5158 36.6581 16.4535 36.4434 16.4137C36.014 16.334 35.6351 16.3478 35.2819 16.3478C34.5424 16.3478 31.2548 16.3738 30.9834 16.3738C30.665 16.3738 30.1569 16.5064 29.9218 16.6412C29.3381 16.9754 29.1555 17.4334 29.1555 17.4334L29.0996 17.5312L29.0677 17.641C29.0677 17.641 28.3191 20.0627 27.549 21.3108H27.547C26.6416 22.7812 25.9662 23.3645 25.6692 23.5299C25.6377 23.5475 25.6551 23.5382 25.6333 23.5499C25.6101 23.4822 25.5807 23.3891 25.5614 23.2166C25.518 22.8281 25.5435 22.281 25.5435 21.7519C25.5435 20.2863 25.6535 19.3724 25.5315 18.507C25.4705 18.0744 25.3151 17.5926 24.9608 17.2219C24.6064 16.8512 24.1487 16.6688 23.6916 16.5633H23.6896C23.2132 16.4536 22.6998 16.3594 21.4665 16.3478C19.8951 16.3332 18.8716 16.3819 17.9623 16.7869L17.9523 16.7928L17.9443 16.7968C17.585 16.9656 17.3017 17.1591 17.0523 17.4175C16.9275 17.5466 16.7796 17.6407 16.6771 18.0521C16.6259 18.2577 16.6202 18.6468 16.8527 18.962C17.0852 19.2773 17.411 19.3723 17.603 19.3971C17.5676 19.3925 17.7542 19.4335 17.8984 19.5048C18.0426 19.5761 18.1679 19.6788 18.1997 19.7204V19.7224C18.1864 19.705 18.3249 20.0492 18.3614 20.3629C18.3978 20.6767 18.3913 20.9297 18.3913 20.9297L18.3893 20.9916L18.3953 21.0534C18.3953 21.0534 18.458 21.7476 18.4252 22.4643C18.4088 22.8226 18.3635 23.1833 18.3035 23.4042C18.3003 23.4159 18.2989 23.4118 18.2955 23.4222C18.0397 23.2435 17.4498 22.621 16.6372 21.2789C15.886 20.0374 15.1824 17.8046 15.1824 17.8046L15.1664 17.7547L15.1485 17.7068C15.1485 17.7068 15.0173 17.208 14.4381 16.8008C13.8951 16.4186 13.3784 16.3658 13.3784 16.3658L13.2846 16.3478ZM13.0471 18.3913C13.1056 18.4127 13.2278 18.4567 13.2507 18.4671L13.2267 18.3953L13.2587 18.4691L13.2627 18.4711V18.4731H13.2646C13.2133 18.4372 13.2568 18.4729 13.2627 18.4811C13.2909 18.5774 13.9148 20.7264 14.8891 22.3366C15.7766 23.8024 16.4323 24.6236 17.1481 25.1144C17.8631 25.6048 18.8246 25.5543 19.3133 25.3C19.9664 24.9608 20.149 24.4034 20.2751 23.939C20.4013 23.4747 20.4463 23.0036 20.4667 22.5581C20.5056 21.708 20.4391 21.0126 20.4328 20.9437C20.4338 20.9052 20.4429 20.5731 20.3909 20.1255C20.3384 19.6744 20.2444 19.1138 19.8441 18.551C20.2925 18.4843 20.5415 18.3829 21.4465 18.3913C22.6007 18.4022 22.7763 18.4503 23.2306 18.5549C23.478 18.612 23.5055 18.6593 23.482 18.6348C23.4586 18.6103 23.48 18.5939 23.508 18.7924C23.564 19.1894 23.5 20.2074 23.5 21.7519C23.5 22.1872 23.458 22.8012 23.5299 23.4441C23.6019 24.0867 23.8027 24.9088 24.5796 25.3898C25.0223 25.6638 25.868 25.758 26.665 25.314C27.462 24.87 28.28 24.0182 29.2872 22.3825C30.2822 20.7697 30.8772 18.6494 30.9415 18.4252C30.9415 18.4252 30.9529 18.4178 30.9595 18.4133C30.9775 18.4141 30.9546 18.4172 30.9834 18.4172C31.3619 18.4172 34.591 18.3913 35.2819 18.3913C35.472 18.3913 35.5555 18.4015 35.697 18.4073C35.6398 18.6279 35.5629 18.8847 35.4216 19.2155C35.0896 19.9928 34.5197 21.0011 33.6954 22.0512C32.9851 22.9559 32.4332 23.6121 32.0112 24.1605C31.5891 24.709 31.2576 25.1415 31.1191 25.767C30.9807 26.3924 31.2449 27.0979 31.6061 27.545C31.9673 27.9922 32.4142 28.3688 33.011 28.8981C35.2589 30.8937 35.6277 31.4978 35.6631 31.5542V31.5562C35.701 31.6164 35.6764 31.5558 35.691 31.5861C35.5636 31.6258 35.4119 31.6708 35.3977 31.6739H31.2628H31.2568C31.2568 31.6739 30.4963 31.649 29.9318 31.2748L29.9298 31.2728H29.9278C29.3305 30.8816 28.6087 30.2107 27.8663 29.6344C27.4952 29.3463 27.1173 29.0763 26.679 28.8781C26.2407 28.6799 25.6851 28.5395 25.1005 28.7145C24.2542 28.9678 23.7845 29.7731 23.6337 30.4127C23.5254 30.8718 23.5414 31.2711 23.5379 31.6719C23.5088 31.6735 23.534 31.6739 23.5 31.6739H22.1849C20.1082 31.6739 17.9478 31.04 15.6174 28.6047C12.5878 25.4409 9.88478 19.3227 9.47903 18.3933L13.0471 18.3913ZM30.8697 18.3993C30.8511 18.4034 30.9042 18.4074 30.9475 18.4113C30.9417 18.4144 30.948 18.4084 30.9395 18.4133C30.9387 18.3962 30.8946 18.3937 30.8697 18.3993Z" fill="white"/>
</svg>
