<svg width="47" height="47" viewBox="0 0 47 47" fill="none" xmlns="http://www.w3.org/2000/svg">
<path d="M23.5 0C19.3858 0.00106621 15.344 1.08187 11.7784 3.13438C8.21287 5.1869 5.24851 8.13923 3.18163 11.6963C1.11474 15.2534 0.017721 19.2906 0.000212902 23.4045C-0.0172952 27.5183 1.04532 31.5648 3.08186 35.1393L0.965822 42.5452C0.827689 43.0287 0.821377 43.5404 0.947541 44.0271C1.07371 44.5139 1.32775 44.9581 1.68336 45.3137C2.03897 45.6692 2.4832 45.9232 2.97001 46.0493C3.45682 46.1755 3.96851 46.1691 4.45205 46.031L11.8584 43.9152C14.9854 45.6978 18.48 46.7384 22.0727 46.9567C25.6655 47.1751 29.2604 46.5653 32.5802 45.1745C35.9 43.7836 38.8559 41.6489 41.22 38.9349C43.5841 36.221 45.2932 33.0003 46.2155 29.5213C47.1377 26.0423 47.2485 22.398 46.5392 18.8694C45.83 15.3408 44.3196 12.0223 42.1247 9.16973C39.9298 6.3172 37.109 4.00691 33.8798 2.41705C30.6506 0.827189 27.0994 0.000245321 23.5 0ZM23.5 45.1169C19.6171 45.1196 15.8053 44.0751 12.4661 42.0934C12.3561 42.0278 12.2337 41.9855 12.1067 41.969C11.9796 41.9525 11.8506 41.9622 11.7274 41.9974L3.93545 44.2236C3.77427 44.2696 3.6037 44.2717 3.44143 44.2297C3.27916 44.1876 3.13109 44.1029 3.01257 43.9844C2.89405 43.8659 2.80938 43.7178 2.76735 43.5555C2.72532 43.3932 2.72746 43.2227 2.77353 43.0615L4.99961 35.2703C5.03478 35.1472 5.04442 35.0181 5.02792 34.8911C5.01143 34.7641 4.96915 34.6417 4.90368 34.5316C2.46852 30.4293 1.45861 25.6368 2.03127 20.9006C2.60394 16.1645 4.72702 11.7508 8.0698 8.34697C11.4126 4.94314 15.7873 2.74038 20.5126 2.08181C25.2378 1.42325 30.0482 2.34587 34.1944 4.70595C38.3406 7.06603 41.5898 10.731 43.4358 15.1301C45.2818 19.5291 45.621 24.4151 44.4005 29.0269C43.18 33.6388 40.4684 37.7175 36.6881 40.6278C32.9077 43.538 28.2709 45.1164 23.5 45.1169ZM35.3701 27.8557L30.5622 25.1084C30.1272 24.8602 29.6339 24.7321 29.1331 24.7374C28.6323 24.7428 28.1418 24.8813 27.7122 25.1387L24.4677 27.0854C22.5035 26.0903 20.9079 24.4948 19.9128 22.5307L21.8595 19.2864C22.1169 18.8568 22.2554 18.3664 22.2607 17.8657C22.2661 17.3649 22.138 16.8717 21.8898 16.4367L19.1424 11.6289C18.9181 11.2375 18.5945 10.9122 18.2043 10.6858C17.8141 10.4594 17.371 10.3398 16.9199 10.3393C14.9305 10.3398 13.0222 11.1283 11.6129 12.5324C10.2035 13.9364 9.4078 15.8415 9.39989 17.8308C9.39624 20.4252 9.90413 22.995 10.8945 25.393C11.8849 27.791 13.3383 29.9702 15.1717 31.8061C17.005 33.6419 19.1824 35.0984 21.5791 36.0921C23.9759 37.0859 26.545 37.5974 29.1397 37.5975H29.1679C31.1573 37.5895 33.0626 36.7939 34.4667 35.3846C35.8708 33.9753 36.6594 32.0673 36.6599 30.078C36.6594 29.6268 36.5399 29.1838 36.3134 28.7937C36.087 28.4035 35.7616 28.08 35.3701 27.8557ZM29.1653 35.7176H29.1398C26.7923 35.7176 24.4678 35.2548 22.2992 34.3557C20.1307 33.4567 18.1607 32.1389 16.502 30.4779C14.8432 28.8169 13.5282 26.8452 12.6321 24.6756C11.7361 22.5059 11.2766 20.1809 11.2799 17.8336C11.2864 16.3422 11.8835 14.9141 12.9405 13.8618C13.9975 12.8096 15.4284 12.219 16.9199 12.2192C17.0397 12.2193 17.1573 12.2511 17.261 12.3112C17.3646 12.3713 17.4505 12.4576 17.5101 12.5615L20.2575 17.3696C20.3402 17.5145 20.3829 17.6789 20.3811 17.8458C20.3793 18.0127 20.3332 18.1762 20.2474 18.3194L18.041 21.9965C17.9629 22.1265 17.9175 22.2734 17.9086 22.4247C17.8997 22.576 17.9275 22.7273 17.9897 22.8655C19.2165 25.596 21.4023 27.7816 24.1329 29.0084C24.2712 29.0706 24.4225 29.0984 24.5739 29.0895C24.7252 29.0805 24.8722 29.0351 25.0021 28.957L28.6793 26.7508C28.8225 26.665 28.986 26.6188 29.1529 26.617C29.3199 26.6152 29.4843 26.6578 29.6294 26.7405L34.4376 29.488C34.5415 29.5475 34.6279 29.6334 34.688 29.737C34.7481 29.8406 34.7798 29.9582 34.7799 30.078C34.7801 31.5694 34.1894 33.0001 33.1371 34.057C32.0849 35.114 30.6567 35.711 29.1653 35.7176Z" fill="white"/>
</svg>
